<?xml version="1.0" encoding="UTF-8" standalone="no"?>
<!-- Created with Inkscape (http://www.inkscape.org/) -->

<svg
   xmlns:dc="http://purl.org/dc/elements/1.1/"
   xmlns:cc="http://creativecommons.org/ns#"
   xmlns:rdf="http://www.w3.org/1999/02/22-rdf-syntax-ns#"
   xmlns:svg="http://www.w3.org/2000/svg"
   xmlns="http://www.w3.org/2000/svg"
   xmlns:sodipodi="http://sodipodi.sourceforge.net/DTD/sodipodi-0.dtd"
   xmlns:inkscape="http://www.inkscape.org/namespaces/inkscape"
   width="88.561333mm"
   height="75.985153mm"
   viewBox="0 0 88.561333 75.985153"
   version="1.1"
   id="svg5455"
   inkscape:version="0.92.3 (2405546, 2018-03-11)"
   sodipodi:docname="arecibo.svg">
  <defs
     id="defs5449">
    <clipPath
       clipPathUnits="userSpaceOnUse"
       id="clipPath3714">
      <path
         d="M 313.23,540.31 H 564.27 V 755.701 H 313.23 Z"
         id="path3712"
         inkscape:connector-curvature="0" />
    </clipPath>
    <clipPath
       clipPathUnits="userSpaceOnUse"
       id="clipPath3714-3">
      <path
         d="M 313.23,540.31 H 564.27 V 755.701 H 313.23 Z"
         id="path3712-6"
         inkscape:connector-curvature="0" />
    </clipPath>
    <clipPath
       clipPathUnits="userSpaceOnUse"
       id="clipPath3802">
      <path
         d="M 313.23,540.31 H 564.27 V 755.701 H 313.23 Z"
         id="path3800"
         inkscape:connector-curvature="0" />
    </clipPath>
  </defs>
  <sodipodi:namedview
     id="base"
     pagecolor="#ffffff"
     bordercolor="#666666"
     borderopacity="1.0"
     inkscape:pageopacity="0.0"
     inkscape:pageshadow="2"
     inkscape:zoom="0.35"
     inkscape:cx="-215.4219"
     inkscape:cy="-45.559387"
     inkscape:document-units="mm"
     inkscape:current-layer="layer1"
     showgrid="false"
     fit-margin-top="0"
     fit-margin-left="0"
     fit-margin-right="0"
     fit-margin-bottom="0"
     inkscape:window-width="1600"
     inkscape:window-height="836"
     inkscape:window-x="0"
     inkscape:window-y="27"
     inkscape:window-maximized="1" />
  <metadata
     id="metadata5452">
    <rdf:RDF>
      <cc:Work
         rdf:about="">
        <dc:format>image/svg+xml</dc:format>
        <dc:type
           rdf:resource="http://purl.org/dc/dcmitype/StillImage" />
        <dc:title></dc:title>
      </cc:Work>
    </rdf:RDF>
  </metadata>
  <g
     inkscape:label="Layer 1"
     inkscape:groupmode="layer"
     id="layer1"
     transform="translate(-37.173203,-109.70683)">
    <g
       transform="matrix(0.35277777,0,0,-0.35277777,-73.327378,376.30134)"
       id="g6170">
      <path
         d="M 313.23,540.31 H 564.27 V 755.7 H 313.23 Z"
         style="fill:#ffffff;fill-opacity:1;fill-rule:nonzero;stroke:none"
         id="path3706"
         inkscape:connector-curvature="0" />
      <g
         id="g3708">
        <g
           id="g3710"
           clip-path="url(#clipPath3714-3)">
          <g
             id="g3716"
             transform="translate(570.063,578.707)">
            <path
               d="m 0,0 c 0,0 -55.78,-26.268 -128.749,-26.268 -68.105,0 -129.532,26.145 -129.532,26.145 V -38.934 H 0 Z"
               style="fill:#deddde;fill-opacity:1;fill-rule:nonzero;stroke:none"
               id="path3718"
               inkscape:connector-curvature="0" />
            <g
               id="g3720"
               transform="translate(204.11,307.12)">
              <path
                 d="m 0,0 c 0,-183.906 -149.086,-332.992 -332.992,-332.992 -183.906,0 -332.992,149.086 -332.992,332.992 0,183.907 149.086,332.993 332.992,332.993 C -149.086,332.993 0,183.907 0,0 Z"
                 style="fill:none;stroke:#231f20;stroke-width:1.5;stroke-linecap:round;stroke-linejoin:miter;stroke-miterlimit:4;stroke-dasharray:none;stroke-opacity:1"
                 id="path3722"
                 inkscape:connector-curvature="0" />
              <g
                 id="g3724"
                 transform="translate(-446.4332,-129.2921)">
                <path
                   d="M 0,0 V -182.539 M 209.36,-0.433 v -187.728 m -7.615,187.765 v -189.673 m 12.716,189.74 V -186.298 M 4.145,-0.013 v -183.979 m 8.297,183.435 v -185.982 m -8.546,1.297 142.556,132.92 -81.541,-16.966 9.364,10.5 -8.47,-11.73 77.026,24.409 L 8.302,-186.742 m -6.609,2.282 150.326,120.594 -88.215,-3.192 10.471,8.27 -10.065,-9.392 85.461,9.774 -147.15,-126.351 m -1.672,0.593 153.166,114.912 -90.611,3.192 10.871,7.272 -11.375,-5.92 92.816,-9.591 -156.054,-109.443 m 12.609,-4.281 126.223,147.902 -72.018,-31.289 7.799,12.622 -6.682,-13.516 66.153,37.964 -114.1,-155.933 m 10.665,-3.013 98.273,163.695 -59.985,-43.831 5.676,14.634 -4.559,-15.304 54.327,48.217 -81.558,-170.237 m 15.181,-2.972 62.66,175.893 -49.27,-51.572 3.219,15.975 -1.878,-16.645 45.093,54.042 -42.287,-180.083 m 18.659,-1.631 21.634,182.587 -41.757,-55.47 0.536,17.2 1.094,-17.851 38.331,56.712 -0.2,-183.783 m 19.202,0.569 -20.599,183.413 -35.102,-57.129 -2.726,18.069 4.465,-18.288 31.167,57.747 39.969,-182.327 m 15.072,1.92 -58.234,180.778 -26.125,-58.333 -6.314,18.503 8.271,-18.396 20.55,58.172 74.28,-178.513 m 9.384,1.92 -88.013,176.484 -14.352,-57.955 -10.12,18.288 12.186,-17.961 7.61,56.758 99.754,-173.947 m 8.081,2.174 -112.356,170.41 -1.133,-54.851 -14.142,17.417 16.1,-16.547 -4.894,52.843 119.758,-168.366 m 4.347,1.268 -127.819,165.442 10.347,-50.209 -17.839,15.569 19.796,-14.373 -15.698,47.616 134.185,-163.139 m 2.138,0.688 L 75.18,-27.142 95.92,-71.963 74.275,-58.788"
                   style="fill:none;stroke:#231f20;stroke-width:0.34999999;stroke-linecap:butt;stroke-linejoin:miter;stroke-miterlimit:4;stroke-dasharray:none;stroke-opacity:1"
                   id="path3726"
                   inkscape:connector-curvature="0" />
                <g
                   id="g3728"
                   transform="translate(75.17969,-27.14209)">
                  <path
                     d="m 0,0 c 0.896,0.453 10.664,6.044 22.141,7.907 5.66,0.919 12.105,1.22 17.379,-1.014 25.752,-10.911 39.074,-44.401 41.016,-54.05 m -92.815,9.592 c -0.085,-0.704 2.219,-10.8 15.264,-12.5 8.753,-1.143 13.818,1.862 17.756,5.244"
                     style="fill:none;stroke:#231f20;stroke-width:1.5;stroke-linecap:round;stroke-linejoin:miter;stroke-miterlimit:4;stroke-dasharray:none;stroke-opacity:1"
                     id="path3730"
                     inkscape:connector-curvature="0" />
                  <g
                     id="g3732"
                     transform="translate(-75.1875,-155.94191)">
                    <path
                       d="M 0,0 1.115,4.5 H -1.104 Z"
                       style="fill:#231f20;fill-opacity:1;fill-rule:nonzero;stroke:none"
                       id="path3734"
                       inkscape:connector-curvature="0" />
                    <g
                       id="g3736"
                       transform="translate(214.468,-4.38989)">
                      <path
                         d="M 0,0 1.115,4.5 H -1.103 Z"
                         style="fill:#231f20;fill-opacity:1;fill-rule:nonzero;stroke:none"
                         id="path3738"
                         inkscape:connector-curvature="0" />
                      <g
                         id="g3740"
                         transform="translate(-5.075,-1.588)">
                        <path
                           d="M 0,0 1.115,4.5 H -1.103 Z"
                           style="fill:#231f20;fill-opacity:1;fill-rule:nonzero;stroke:none"
                           id="path3742"
                           inkscape:connector-curvature="0" />
                        <g
                           id="g3744"
                           transform="translate(-7.6151,-2.16701)">
                          <path
                             d="M 0,0 1.115,4.5 H -1.104 Z"
                             style="fill:#231f20;fill-opacity:1;fill-rule:nonzero;stroke:none"
                             id="path3746"
                             inkscape:connector-curvature="0" />
                          <g
                             id="g3748"
                             transform="translate(-21.7299,32.64101)">
                            <path
                               d="m 0,0 1.58,-4.36 1.842,1.237 z"
                               style="fill:#231f20;fill-opacity:1;fill-rule:nonzero;stroke:none"
                               id="path3750"
                               inkscape:connector-curvature="0" />
                            <g
                               id="g3752"
                               transform="translate(9.104,-4.54811)">
                              <path
                                 d="m 0,0 1.935,-4.215 1.733,1.383 z"
                                 style="fill:#231f20;fill-opacity:1;fill-rule:nonzero;stroke:none"
                                 id="path3754"
                                 inkscape:connector-curvature="0" />
                              <g
                                 id="g3756"
                                 transform="translate(8.091,-4.73689)">
                                <path
                                   d="m 0,0 2.158,-4.103 1.656,1.474 z"
                                   style="fill:#231f20;fill-opacity:1;fill-rule:nonzero;stroke:none"
                                   id="path3758"
                                   inkscape:connector-curvature="0" />
                                <g
                                   id="g3760"
                                   transform="translate(-184.74301,-19.4221)">
                                <path
                                   d="M 0,0 1.115,4.5 H -1.104 Z"
                                   style="fill:#231f20;fill-opacity:1;fill-rule:nonzero;stroke:none"
                                   id="path3762"
                                   inkscape:connector-curvature="0" />
                                </g>
                              </g>
                            </g>
                          </g>
                        </g>
                      </g>
                    </g>
                  </g>
                </g>
              </g>
            </g>
          </g>
        </g>
      </g>
      <text
         y="-699.56622"
         x="385.04199"
         transform="scale(1,-1)"
         style="font-variant:normal;font-weight:normal;font-stretch:normal;font-size:8px;font-family:'Times LT Std';-inkscape-font-specification:TimesLTStd-Roman;writing-mode:lr-tb;fill:#231f20;fill-opacity:1;fill-rule:nonzero;stroke:none"
         id="text3766">
        <tspan
           x="385.04199 390.37799 393.92999 397.48199 401.034"
           y="-699.56622"
           sodipodi:role="line"
           id="tspan3764">Recei</tspan>
      </text>
      <text
         y="-699.56622"
         x="403.05801"
         transform="scale(1,-1)"
         style="font-variant:normal;font-weight:normal;font-stretch:normal;font-size:8px;font-family:'Times LT Std';-inkscape-font-specification:TimesLTStd-Roman;writing-mode:lr-tb;fill:#231f20;fill-opacity:1;fill-rule:nonzero;stroke:none"
         id="text3770">
        <tspan
           x="403.05801 406.93799"
           y="-699.56622"
           sodipodi:role="line"
           id="tspan3768">ve</tspan>
      </text>
      <text
         y="-699.56622"
         x="410.48999"
         transform="scale(1,-1)"
         style="font-variant:normal;font-weight:normal;font-stretch:normal;font-size:8px;font-family:'Times LT Std';-inkscape-font-specification:TimesLTStd-Roman;writing-mode:lr-tb;fill:#231f20;fill-opacity:1;fill-rule:nonzero;stroke:none"
         id="text3774">
        <tspan
           x="410.48999"
           y="-699.56622"
           id="tspan3772">r</tspan>
      </text>
      <text
         y="-670.79022"
         x="388.51401"
         transform="scale(1,-1)"
         style="font-variant:normal;font-weight:normal;font-stretch:normal;font-size:8px;font-family:'Times LT Std';-inkscape-font-specification:TimesLTStd-Roman;writing-mode:lr-tb;fill:#231f20;fill-opacity:1;fill-rule:nonzero;stroke:none"
         id="text3778">
        <tspan
           x="388.51401 392.84201 396.39401 399.05801 401.28201 403.50601 407.05801 409.72202"
           y="-670.79022"
           sodipodi:role="line"
           id="tspan3776">Tertiary</tspan>
      </text>
      <text
         y="-661.79022"
         x="390.89801"
         transform="scale(1,-1)"
         style="font-variant:normal;font-weight:normal;font-stretch:normal;font-size:8px;font-family:'Times LT Std';-inkscape-font-specification:TimesLTStd-Roman;writing-mode:lr-tb;fill:#231f20;fill-opacity:1;fill-rule:nonzero;stroke:none"
         id="text3782">
        <tspan
           x="390.89801 397.12201 399.34601 402.01001 404.67401 408.67401"
           y="-661.79022"
           sodipodi:role="line"
           id="tspan3780">mirror</tspan>
      </text>
      <text
         y="-729.79822"
         x="461.64999"
         transform="scale(1,-1)"
         style="font-variant:normal;font-weight:normal;font-stretch:normal;font-size:8px;font-family:'Times LT Std';-inkscape-font-specification:TimesLTStd-Roman;writing-mode:lr-tb;fill:#231f20;fill-opacity:1;fill-rule:nonzero;stroke:none"
         id="text3786">
        <tspan
           x="461.64999 466.09799 469.64999 473.202 477.202 481.202 485.202 488.754 491.418"
           y="-729.79822"
           sodipodi:role="line"
           id="tspan3784">Secondary</tspan>
      </text>
      <text
         y="-720.79822"
         x="468.314"
         transform="scale(1,-1)"
         style="font-variant:normal;font-weight:normal;font-stretch:normal;font-size:8px;font-family:'Times LT Std';-inkscape-font-specification:TimesLTStd-Roman;writing-mode:lr-tb;fill:#231f20;fill-opacity:1;fill-rule:nonzero;stroke:none"
         id="text3790">
        <tspan
           x="468.314 474.53799 476.76199 479.42599 482.09 486.09"
           y="-720.79822"
           sodipodi:role="line"
           id="tspan3788">mirror</tspan>
      </text>
      <text
         y="-543.59821"
         x="416.578"
         transform="scale(1,-1)"
         style="font-variant:normal;font-weight:normal;font-stretch:normal;font-size:8px;font-family:'Times LT Std';-inkscape-font-specification:TimesLTStd-Roman;writing-mode:lr-tb;fill:#231f20;fill-opacity:1;fill-rule:nonzero;stroke:none"
         id="text3794">
        <tspan
           x="416.578 421.026 423.69 425.914 432.138 435.69 438.354 442.354 444.354 450.578 452.802 455.466 458.13 462.13"
           y="-543.59821"
           sodipodi:role="line"
           id="tspan3792">Primary mirror</tspan>
      </text>
      <g
         id="g3796">
        <g
           id="g3798"
           clip-path="url(#clipPath3802)">
          <g
             id="g3804"
             transform="translate(330.4512,575.838)">
            <path
               d="M 0,0 0.705,-3.66 2.024,-2.978 3.047,1.136 1.91,1.122 1.478,0.637 0.455,0.705 Z"
               style="fill:#ffffff;fill-opacity:1;fill-rule:nonzero;stroke:none"
               id="path3806"
               inkscape:connector-curvature="0" />
            <g
               id="g3808"
               transform="translate(1.4292,-3.827)">
              <path
                 d="M 0,0 1.115,4.5 H -1.104 Z"
                 style="fill:#231f20;fill-opacity:1;fill-rule:nonzero;stroke:none"
                 id="path3810"
                 inkscape:connector-curvature="0" />
            </g>
          </g>
        </g>
      </g>
    </g>
  </g>
</svg>
